<svg width="21" height="18" viewBox="0 0 21 18" fill="none" xmlns="http://www.w3.org/2000/svg">
<path d="M2.81804 2.31804C2.40017 2.7359 2.0687 3.23198 1.84255 3.77795C1.6164 4.32392 1.5 4.90909 1.5 5.50004C1.5 6.09099 1.6164 6.67616 1.84255 7.22213C2.0687 7.7681 2.40017 8.26417 2.81804 8.68204L10.5 16.364L18.182 8.68204C19.026 7.83812 19.5001 6.69352 19.5001 5.50004C19.5001 4.30656 19.026 3.16196 18.182 2.31804C17.3381 1.47412 16.1935 1.00001 15 1.00001C13.8066 1.00001 12.662 1.47412 11.818 2.31804L10.5 3.63604L9.18204 2.31804C8.76417 1.90017 8.2681 1.5687 7.72213 1.34255C7.17616 1.1164 6.59099 1 6.00004 1C5.40909 1 4.82392 1.1164 4.27795 1.34255C3.73198 1.5687 3.2359 1.90017 2.81804 2.31804V2.31804Z" stroke="black" stroke-width="2" stroke-linecap="round" stroke-linejoin="round"/>
</svg>
